<svg xmlns="http://www.w3.org/2000/svg" width="390" height="844" viewBox="0 0 390 844">
  <defs>
    <clipPath id="hero"><rect width="390" height="312"/></clipPath>
    <clipPath id="feature"><rect x="16" y="468" width="358" height="154" rx="18"/></clipPath>
    <linearGradient id="heroFade" x1="0" y1="0" x2="0" y2="1"><stop offset=".45" stop-color="#131415" stop-opacity="0"/><stop offset="1" stop-color="#131415" stop-opacity=".94"/></linearGradient>
    <pattern id="cardTexture" width="82" height="112" patternUnits="userSpaceOnUse" patternTransform="rotate(-10)"><image href="../../../public/assets/brand-assets/pokemon-tcg-official/card-database/SVP_EN_27.png" width="82" height="112" opacity=".12"/></pattern>
  </defs>
  <rect width="390" height="844" fill="#131415"/>
  <g clip-path="url(#hero)"><image href="assets/brand-scene.jpg" width="390" height="312" preserveAspectRatio="xMidYMid slice"/></g>
  <rect y="174" width="390" height="172" fill="url(#heroFade)"/>
  <rect y="312" width="390" height="532" fill="#131415"/>
  <rect y="312" width="390" height="532" fill="url(#cardTexture)" opacity=".18"/>
  <image href="../../../public/assets/brand-assets/pokemon-tcg-official/Logo-30th.png" x="282" y="111" width="84" height="46" preserveAspectRatio="xMidYMid meet" opacity=".9"/>
  <path d="M0 355C92 322 176 394 266 356S352 326 390 342V426C312 454 218 392 126 430S36 450 0 438Z" fill="#FFCB05" opacity=".08"/>
  <path d="M0 594C78 558 153 628 235 594S337 561 390 582V650C300 678 229 623 142 654S45 673 0 659Z" fill="#EF3340" opacity=".08"/>
  <text x="18" y="53" fill="#FFFFFF" font-family="Arial,sans-serif" font-size="10" font-weight="700">PTCG</text>
  <text x="18" y="82" fill="#FFFFFF" font-family="Arial,sans-serif" font-size="27" font-weight="900">牌组广场</text>
  <circle cx="344" cy="65" r="19" fill="#FFFFFF"/><circle cx="344" cy="65" r="7" fill="#131415"/>
  <rect x="16" y="282" width="358" height="58" rx="29" fill="#131415" fill-opacity=".9" stroke="#FFFFFF" stroke-opacity=".55"/>
  <circle cx="43" cy="311" r="8" fill="none" stroke="#494949" stroke-width="2"/><path d="m49 317 6 6" stroke="#494949" stroke-width="2"/>
  <text x="67" y="317" fill="#EDEDED" font-family="Arial,sans-serif" font-size="14">搜索牌组、作者</text><circle cx="345" cy="311" r="21" fill="#FFFFFF"/><path d="m341 302 9 9-9 9" fill="none" stroke="#131415" stroke-width="3"/>
  <g font-family="Arial,sans-serif" font-size="17" font-weight="800"><text x="20" y="386" fill="#FFFFFF">卡组广场</text><text x="124" y="386" fill="#EDEDED">赛事</text></g><rect x="20" y="397" width="72" height="4" rx="2" fill="#FFFFFF"/>
  <text x="20" y="445" fill="#FFFFFF" font-family="Arial,sans-serif" font-size="19" font-weight="900">本周焦点</text><text x="370" y="444" text-anchor="end" fill="#EDEDED" font-family="Arial,sans-serif" font-size="10">查看全部 ›</text>
  <rect x="20" y="452" width="42" height="5" rx="3" fill="#EF3340"/><rect x="64" y="452" width="22" height="5" rx="3" fill="#FFCB05"/>
  <g clip-path="url(#feature)"><image href="assets/deck-014.jpg" x="16" y="468" width="179" height="154" preserveAspectRatio="xMidYMid slice"/><image href="assets/deck-003.jpg" x="195" y="468" width="179" height="154" preserveAspectRatio="xMidYMid slice"/></g>
  <line x1="195" y1="468" x2="195" y2="622" stroke="#FFCB05" stroke-width="5"/>
  <circle cx="195" cy="545" r="28" fill="#131415"/><text x="195" y="553" text-anchor="middle" fill="#FFFFFF" font-family="Arial,sans-serif" font-size="18" font-weight="900">VS</text>
  <text x="32" y="598" fill="#FFFFFF" font-family="Arial,sans-serif" font-size="14" font-weight="900">烈焰速攻</text><text x="358" y="598" text-anchor="end" fill="#FFFFFF" font-family="Arial,sans-serif" font-size="14" font-weight="900">能量控制</text>
  <g font-family="Arial,sans-serif" font-size="11" font-weight="700"><rect x="16" y="646" width="49" height="34" rx="17" fill="#FFFFFF"/><text x="40" y="667" text-anchor="middle" fill="#131415">全部</text><rect x="72" y="646" width="76" height="34" rx="17" fill="#494949"/><text x="110" y="667" text-anchor="middle" fill="#FFFFFF">玩家发布</text><rect x="155" y="646" width="76" height="34" rx="17" fill="#494949"/><text x="193" y="667" text-anchor="middle" fill="#FFFFFF">参赛卡组</text><rect x="238" y="646" width="130" height="34" rx="17" fill="#494949"/><text x="303" y="667" text-anchor="middle" fill="#FFFFFF">标准赛制18.0</text></g>
  <text x="16" y="720" fill="#FFFFFF" font-family="Arial,sans-serif" font-size="25" font-weight="900">全部牌组</text><text x="374" y="718" text-anchor="end" fill="#EDEDED" font-family="Arial,sans-serif" font-size="10">1924 个结果</text>
  <rect x="16" y="738" width="358" height="82" rx="14" fill="#FFFFFF"/><image href="assets/deck-007.jpg" x="27" y="747" width="46" height="64"/><text x="87" y="770" fill="#131415" font-family="Arial,sans-serif" font-size="14" font-weight="900">环境构筑档案</text><text x="87" y="791" fill="#494949" font-family="Arial,sans-serif" font-size="10">标准赛制18.0 · 清凌</text><image href="../../../public/assets/brand-assets/pokemon-tcg-official/2M6P_EN_23.png" x="293" y="744" width="45" height="63"/><text x="354" y="786" text-anchor="end" fill="#131415" font-family="Arial,sans-serif" font-size="22">›</text>
  <rect x="139" y="829" width="112" height="5" rx="3" fill="#FFFFFF"/>
</svg>
