<svg xmlns="http://www.w3.org/2000/svg" width="390" height="844" viewBox="0 0 390 844">
  <defs>
    <clipPath id="hero"><rect width="390" height="244"/></clipPath>
    <pattern id="wave" width="390" height="128" patternUnits="userSpaceOnUse"><image href="../../public/assets/brand-assets/onepiece-cardgame/source/footer/background-wave.webp" width="390" height="128" preserveAspectRatio="xMidYMid slice" opacity=".18"/></pattern>
    <linearGradient id="fade" x1="0" y1="0" x2="0" y2="1"><stop offset=".45" stop-color="#000" stop-opacity="0"/><stop offset="1" stop-color="#000" stop-opacity=".78"/></linearGradient>
  </defs>
  <rect width="390" height="844" fill="#F3F1EA"/>
  <g clip-path="url(#hero)"><image href="../../public/assets/brand-assets/onepiece-cardgame/source/hero-mv-sp.webp" width="390" height="244" preserveAspectRatio="xMidYMid slice"/><rect width="390" height="244" fill="url(#fade)"/></g>
  <text x="18" y="48" fill="#FFFFFF" font-family="Arial,sans-serif" font-size="10" font-weight="700">CARD PORT</text>
  <text x="18" y="76" fill="#FFFFFF" font-family="Arial,sans-serif" font-size="26" font-weight="900">卡组广场</text>
  <circle cx="348" cy="58" r="20" fill="#FFFFFF"/><circle cx="348" cy="58" r="7" fill="#B91D22"/>
  <rect x="16" y="216" width="358" height="54" rx="27" fill="#FFFFFF" stroke="#DCD6C6"/><text x="40" y="249" fill="#717171" font-family="Arial,sans-serif" font-size="14">搜索牌组、作者</text><circle cx="346" cy="243" r="20" fill="#B91D22"/><text x="346" y="251" text-anchor="middle" fill="#FFFFFF" font-size="24">›</text>
  <g font-family="Arial,sans-serif" font-size="17" font-weight="900"><text x="20" y="316" fill="#111111">卡组广场</text><text x="126" y="316" fill="#717171">赛事</text></g><rect x="20" y="327" width="72" height="5" fill="#FFF507"/>
  <rect y="346" width="390" height="498" fill="url(#wave)"/>
  <text x="20" y="384" fill="#111111" font-family="Arial,sans-serif" font-size="11" font-weight="800">PICK UP PRODUCTS</text><text x="20" y="416" fill="#111111" font-family="Arial,sans-serif" font-size="26" font-weight="900">从新系列开始构筑</text>
  <rect x="20" y="438" width="350" height="190" fill="#FFFFFF" stroke="#DCD6C6"/>
  <image href="../../public/assets/brand-assets/onepiece-cardgame/source/product-st31.webp" x="34" y="453" width="138" height="160" preserveAspectRatio="xMidYMid contain"/>
  <image href="../../public/assets/brand-assets/onepiece-cardgame/source/product-st32.webp" x="178" y="453" width="138" height="160" preserveAspectRatio="xMidYMid contain"/>
  <rect x="300" y="452" width="54" height="26" rx="13" fill="#FFF507"/><text x="327" y="469" text-anchor="middle" fill="#111111" font-family="Arial,sans-serif" font-size="9" font-weight="900">NEW</text>
  <g font-family="Arial,sans-serif" font-size="11" font-weight="700"><rect x="20" y="650" width="50" height="34" rx="17" fill="#B91D22"/><text x="45" y="671" text-anchor="middle" fill="#FFFFFF">全部</text><rect x="77" y="650" width="76" height="34" rx="17" fill="#FFFFFF"/><text x="115" y="671" text-anchor="middle" fill="#717171">玩家发布</text><rect x="160" y="650" width="76" height="34" rx="17" fill="#FFFFFF"/><text x="198" y="671" text-anchor="middle" fill="#717171">参赛卡组</text></g>
  <text x="20" y="729" fill="#111111" font-family="Arial,sans-serif" font-size="23" font-weight="900">全部牌组</text><text x="370" y="728" text-anchor="end" fill="#717171" font-family="Arial,sans-serif" font-size="10">1924 个结果</text>
  <rect x="20" y="746" width="350" height="72" fill="#FFFFFF" stroke="#DCD6C6"/><image href="../../public/assets/brand-assets/onepiece-cardgame/source/product-st33.webp" x="31" y="754" width="50" height="56" preserveAspectRatio="xMidYMid contain"/><text x="94" y="776" fill="#111111" font-family="Arial,sans-serif" font-size="14" font-weight="900">新世界构筑档案</text><text x="94" y="797" fill="#717171" font-family="Arial,sans-serif" font-size="10">玩家发布 · 本周更新</text><text x="350" y="792" text-anchor="end" fill="#B91D22" font-size="22">›</text>
</svg>
